<svg id="Layer_1" data-name="Layer 1" xmlns="http://www.w3.org/2000/svg" viewBox="0 0 783 551.62"><defs><style>.cls-1{fill:#292f64;}</style></defs><path class="cls-1" d="M567,373.83h69.18a35.69,35.69,0,0,1-3-14,40.37,40.37,0,0,1,.44-6H566.72c-.27,3.77-.22,6-.22,6Q566.5,367.26,567,373.83Z" transform="translate(-566.5 -264.49)"/><path class="cls-1" d="M566.5,613.17h66.67c66.66,0,102-63,102-112.67,0-22.93-11.3-42.37-23.46-56.67H602.07c9.3,7.8,19.88,15,31.1,23.34,36.66,27.33,34,32.33,34,43.33,0,21.67-13.68,39.67-34,39.67H566.5Z" transform="translate(-566.5 -264.49)"/><path class="cls-1" d="M999.16,386.5h-130s-37.14,0-70.55,19H999.16Z" transform="translate(-566.5 -264.49)"/><path class="cls-1" d="M1264.17,386.5H1131.83s-36.53,0-69.39,19h201.73Z" transform="translate(-566.5 -264.49)"/><path class="cls-1" d="M667.17,327.5h597c9.54,0,15.12,2.9,18.39,6.33h66.94c0-71.66-62.34-69.33-62.34-69.33h-620c-67.64,0-89.86,41.11-97.14,69.33h76.29C655.89,327.62,667.17,327.5,667.17,327.5Z" transform="translate(-566.5 -264.49)"/><path class="cls-1" d="M1213.83,530.5l50.34-79.67v-7H1024.28c-8,14.77-13.12,33.32-13.12,56.67,0,114,120.67,112.67,120.67,112.67h132.34v-63H1131.83s-52,0-52-49.67,52-49.67,52-49.67h67.67l-48.33,79.67Z" transform="translate(-566.5 -264.49)"/><path class="cls-1" d="M999.16,613.17V443.83H759.83c-8.18,14.77-13.33,33.32-13.33,56.67,0,114,122.67,112.67,122.67,112.67h48v-63h-48s-52.67,0-52.67-49.67,52.67-49.67,52.67-49.67H936.5V613.17Z" transform="translate(-566.5 -264.49)"/><path class="cls-1" d="M999.16,417.5H781.44a96.63,96.63,0,0,0-15.21,16.33H999.16Z" transform="translate(-566.5 -264.49)"/><path class="cls-1" d="M1349.5,353.83h-62.34v20h62.34Z" transform="translate(-566.5 -264.49)"/><path class="cls-1" d="M643.83,386.5h-75.3a102.15,102.15,0,0,0,5,19H663.7A108.6,108.6,0,0,1,643.83,386.5Z" transform="translate(-566.5 -264.49)"/><path class="cls-1" d="M1349.5,655.17V443.83h-62.34V632.17c0,23.33-23,23-23,23H566.5v62.66h720.33C1350.16,717.83,1349.5,655.17,1349.5,655.17Z" transform="translate(-566.5 -264.49)"/><path class="cls-1" d="M1349.5,386.5h-62.34v19h62.34Z" transform="translate(-566.5 -264.49)"/><path class="cls-1" d="M702.31,433.83a138.38,138.38,0,0,0-20.14-16.33h-103a85.49,85.49,0,0,0,12.22,16.33Z" transform="translate(-566.5 -264.49)"/><path class="cls-1" d="M1264.17,417.5H1045.54a95.8,95.8,0,0,0-15,16.33h233.59Z" transform="translate(-566.5 -264.49)"/><path class="cls-1" d="M1287.16,433.83h62.34V417.5h-62.34Z" transform="translate(-566.5 -264.49)"/><rect id="i2" class="cls-1" x="0.29" y="486.59" width="13.29" height="63.27"/><polygon id="n" class="cls-1" points="117.5 549.86 104.34 549.86 78.34 507.46 78.34 549.86 65.94 549.86 65.94 486.59 79.93 486.59 105.18 527.95 105.18 486.59 117.5 486.59 117.5 549.86"/><path id="s" class="cls-1" d="M788,795.43a19,19,0,0,1-2.9,10.83,22.23,22.23,0,0,1-9.15,7.39,28.57,28.57,0,0,1-11.71,2.46q-27.45-.18-28.16-21.21h12.76a9.41,9.41,0,0,0,4.4,7.92,15.85,15.85,0,0,0,9.24,2.56,17.71,17.71,0,0,0,8.94-2.2q3.83-2.2,3.82-5.81.09-5.64-9.85-8-16.46-4-18.48-4.93-9.85-4.66-9.77-15.84a18.9,18.9,0,0,1,3-10.16,18.46,18.46,0,0,1,8.67-6.91,30.31,30.31,0,0,1,12.05-2.38q9.95,0,16.9,5a19.28,19.28,0,0,1,8.36,15.66H773.41a9.34,9.34,0,0,0-4.32-7.3,14.58,14.58,0,0,0-8.27-2.29,16.22,16.22,0,0,0-7.48,1.67q-4,2.11-4.05,6,0,5.37,10,7.74,16.89,4.05,18.65,4.84Q788,785,788,795.43Z" transform="translate(-566.5 -264.49)"/><polygon id="t3" class="cls-1" points="320.96 497.76 301.86 497.76 301.86 549.86 288.57 549.86 288.57 497.76 269.57 497.76 269.57 486.59 320.96 486.59 320.96 497.76"/><rect id="i1" class="cls-1" x="370.59" y="486.59" width="13.29" height="63.27"/><polygon id="t2" class="cls-1" points="485.25 497.76 466.16 497.76 466.16 549.86 452.87 549.86 452.87 497.76 433.86 497.76 433.86 486.59 485.25 486.59 485.25 497.76"/><path id="u" class="cls-1" d="M1152.77,792.7q0,11.81-6.86,17.78-6.51,5.63-18.48,5.63-15.32-.09-22.09-9.5-3.61-5-3.61-13.2V751.08h13.47v41.1a13.82,13.82,0,0,0,2.81,9.06q3,3.69,8.54,3.7,12.67,0,12.67-12.24V751.08h13.55Z" transform="translate(-566.5 -264.49)"/><polygon id="t1" class="cls-1" points="687.3 497.76 668.2 497.76 668.2 549.86 654.91 549.86 654.91 497.76 635.91 497.76 635.91 486.59 687.3 486.59 687.3 497.76"/><polygon id="e" class="cls-1" points="782.42 549.86 734.38 549.86 734.38 486.59 780.93 486.59 780.93 497.76 747.31 497.76 747.31 511.23 778.2 511.23 778.2 522.32 747.31 522.32 747.31 538.68 782.42 538.68 782.42 549.86"/></svg>